<?xml version="1.0" encoding="UTF-8"?>
<svg xmlns="http://www.w3.org/2000/svg" xmlns:xlink="http://www.w3.org/1999/xlink"
     width="800" height="800" viewBox="0 0 800 800">
<defs>
</defs>
<rect x="50.0" y="50.0" width="700" height="700" fill="#f3f4f9" stroke="#8e93c4" stroke-width="2" />
<text x="710.0" y="90.0" font-size="35px" font-family="serif" text-anchor="middle" dominant-baseline="central">𝐄²</text>
<path d="M361.597457609776,255.8619376372198 L102.80676529995858,191.75391870394813 L110.93217410665534,574.9705750865662" fill="#1b1f89" fill-opacity="0.2" />
<path d="M389.35797064481676,267.23532394171724 A30,30,0,0,1,343.0656878496367,279.4537478593538" fill="none" stroke-width="2" stroke="#8c90c1" />
<path d="M361.597457609776,255.8619376372198 L385.84157349855434,347.7162943372233" stroke-width="1.75" stroke="#8c90c1" />
<path d="M387.1175795979637,352.5507341635393 L388.4331192601977,341.86104963137984 L385.3311710587906,345.7825184066969 L380.69801553809214,343.9026593904349" fill="#8c90c1" />
<path d="M520.3077059551149,331.691694899167 L529.5612103001286,335.4828236673328 L533.3523390682943,326.2293193223192" fill="none" stroke-width="2" stroke="black" />
<path d="M524.0988347232807,322.4381905541534 L488.08311142570545,410.3464818317826" stroke-width="1.75" stroke="#8c90c1" />
<path d="M486.18754704162257,414.9732340042894 L493.6800775477938,407.2361811665421 L488.84133717933867,408.49578096277986 L486.277274071783,404.2032781520095" fill="#8c90c1" />
<path d="M686.6002118367854,389.0144434710869 L361.597457609776,255.8619376372198" stroke="black" stroke-width="1.75" />
<path d="M361.597457609776,255.8619376372198 L110.93217410665534,574.9705750865662" stroke="black" stroke-width="1.75" />
<circle cx="361.597457609776" cy="255.8619376372198" r="4" />
<text x="365.8999863392563" y="231.2349555539032" font-size="35px" font-family="serif" font-style="italic" text-anchor="middle" dominant-baseline="central">p</text>
<circle cx="686.6002118367854" cy="389.0144434710869" r="4" />
<text x="700.6535873043114" y="409.6905803919128" font-size="35px" font-family="serif" font-style="italic" text-anchor="middle" dominant-baseline="central">q</text>
<circle cx="110.93217410665534" cy="574.9705750865662" r="4" />
<text x="128.21849215436507" y="593.031117945335" font-size="35px" font-family="serif" font-style="italic" text-anchor="middle" dominant-baseline="central">r</text>
<circle cx="102.80676529995858" cy="191.75391870394813" r="4" />
<text x="91.01838187894863" y="169.7077395266109" font-size="35px" font-family="serif" font-style="italic" text-anchor="middle" dominant-baseline="central">s</text>
<circle cx="524.0988347232807" cy="322.4381905541534" r="4" fill="white" stroke="black" />
<text x="520.3807513302849" y="297.71621943770054" font-size="35px" font-family="serif" font-style="italic" text-anchor="middle" dominant-baseline="central">m</text>
</svg>