<?xml version="1.0" encoding="UTF-8"?>
<svg xmlns="http://www.w3.org/2000/svg" xmlns:xlink="http://www.w3.org/1999/xlink"
     width="400" height="400" viewBox="0 0 400 400">
<defs>
</defs>
<path d="M264.70966987030647,326.7042859453143 L132.77933052257086,281.58140944515037" stroke="black" />
<path d="M205.71609493183817,302.299788595434 L193.06736887202433,302.20115257875455 L203.12716810986777,309.8692970279864" fill="black" />
<path d="M264.70966987030647,326.7042859453143 L187.50779328350188,145.35234048203228" stroke="#FE4A49" />
<path d="M232.13925034609198,239.9821522815254 L223.75860584493668,230.50772365784286 L224.77846427165136,243.11565325748208" fill="#FE4A49" />
<path d="M187.50779328350188,145.35234048203228 L50.0,175.58352871848894" stroke="black" />
<path d="M123.75505606646523,155.2728980836814 L112.89384634006603,161.75627091571653 L125.47283782040647,163.08629848592795" fill="black" />
<path d="M187.50779328350188,145.35234048203228 L102.6722645375799,90.35886018248709" stroke="black" />
<path d="M152.30053442903898,117.76280934288827 L140.0553138641785,114.59191462405616 L147.94895348476763,124.47576273803814" fill="black" />
<path d="M187.50779328350188,145.35234048203228 L315.03298628433527,247.2695772271186" stroke="#FE4A49" />
<path d="M244.08609007644606,195.6898004905407 L255.95744725953736,200.05682220235602 L249.08057454015352,189.440390523049" fill="#FE4A49" />
<path d="M315.03298628433527,247.2695772271186 L347.2979555017056,133.14999799940816" stroke="black" />
<path d="M333.38219900198965,197.0717200299304 L332.79785870219575,184.43611373604656 L325.68396716570055,194.89520295102992" fill="black" />
<path d="M315.03298628433527,247.2695772271186 L132.77933052257086,281.58140944515037" stroke="#FE4A49" />
<path d="M229.06251796024742,259.3844660478672 L218.00974303877973,265.53557704795287 L230.5426295760053,267.246353200765" fill="#FE4A49" />
<path d="M132.77933052257086,281.58140944515037 L102.6722645375799,90.35886018248709" stroke="black" />
<path d="M122.61029823679644,191.2750054857618 L116.79262196631913,180.0431470993715 L114.70764795086683,192.5192395707701" fill="black" />
<path d="M132.77933052257086,281.58140944515037 L50.0,175.58352871848894" stroke="#FE4A49" />
<path d="M98.23520855750328,230.8493032132917 L87.69667411689095,223.8536408540846 L91.93010425385654,235.7732914058177" fill="#FE4A49" />
<path d="M50.0,175.58352871848894 L102.6722645375799,90.35886018248709" stroke="#FE4A49" />
<path d="M76.58431684532854,140.17802485059931 L79.49054159277614,127.86730359970083 L69.77912904427899,135.97214575195105" fill="#FE4A49" />
<path d="M102.6722645375799,90.35886018248709 L347.2979555017056,133.14999799940816" stroke="#FE4A49" />
<path d="M218.38561750065995,114.66074952955897 L230.89536811983606,112.78828071913183 L219.7640863382389,106.78040539596786" fill="#FE4A49" />
<path d="M347.2979555017056,133.14999799940816 L264.70966987030647,326.7042859453143" stroke="#FE4A49" />
<path d="M304.67949083790705,222.83868856963315 L303.6490570103539,235.44575825798793 L312.0376458854093,225.978362803836" fill="#FE4A49" />
<circle cx="264.70966987030647" cy="326.7042859453143" r="5" fill="#FE4A49" />
<text x="249.85253960540683" y="328.76963828615186" font-size="18px" font-family="serif" fill="#FE4A49" stroke="white" stroke-width="4" paint-order="stroke" text-anchor="middle" dominant-baseline="central">a</text>
<circle cx="187.50779328350188" cy="145.35234048203228" r="5" fill="black" />
<text x="192.73850377220913" y="159.41077808310757" font-size="18px" font-family="serif" fill="black" stroke="white" stroke-width="4" paint-order="stroke" text-anchor="middle" dominant-baseline="central">b</text>
<circle cx="315.03298628433527" cy="247.2695772271186" r="5" fill="black" />
<text x="329.57326022995323" y="250.95474121076754" font-size="18px" font-family="serif" fill="black" stroke="white" stroke-width="4" paint-order="stroke" text-anchor="middle" dominant-baseline="central">c</text>
<circle cx="132.77933052257086" cy="281.58140944515037" r="5" fill="black" />
<text x="129.08319058716063" y="267.04392171246883" font-size="18px" font-family="serif" fill="black" stroke="white" stroke-width="4" paint-order="stroke" text-anchor="middle" dominant-baseline="central">d</text>
<circle cx="50.0" cy="175.58352871848894" r="5" fill="black" />
<text x="51.51550002803833" y="190.5067743327987" font-size="18px" font-family="serif" fill="black" stroke="white" stroke-width="4" paint-order="stroke" text-anchor="middle" dominant-baseline="central">e</text>
<circle cx="102.6722645375799" cy="90.35886018248709" r="5" fill="black" />
<text x="98.4168421256822" y="104.74257945450844" font-size="18px" font-family="serif" fill="black" stroke="white" stroke-width="4" paint-order="stroke" text-anchor="middle" dominant-baseline="central">f</text>
<circle cx="347.2979555017056" cy="133.14999799940816" r="5" fill="black" />
<text x="339.37091387311347" y="145.88428286423536" font-size="18px" font-family="serif" fill="black" stroke="white" stroke-width="4" paint-order="stroke" text-anchor="middle" dominant-baseline="central">g</text>
</svg>