<?xml version="1.0" encoding="UTF-8"?>
<svg xmlns="http://www.w3.org/2000/svg" xmlns:xlink="http://www.w3.org/1999/xlink"
     width="400" height="400" viewBox="0 0 400 400">
<defs>
</defs>
<path d="M264.70966987030647,326.7042859453145 L132.77933052257077,281.5814094451506" stroke="black" />
<path d="M205.71609493183814,302.29978859543417 L193.0673688720243,302.2011525787547 L203.12716810986774,309.8692970279866" fill="black" />
<path d="M264.70966987030647,326.7042859453145 L187.50779328350194,145.35234048203222" stroke="#FE4A49" />
<path d="M232.139250346092,239.98215228152546 L223.7586058449367,230.50772365784292 L224.7784642716514,243.11565325748214" fill="#FE4A49" />
<path d="M187.50779328350194,145.35234048203222 L50.0,175.58352871848882" stroke="black" />
<path d="M123.75505606646527,155.27289808368133 L112.89384634006606,161.75627091571644 L125.47283782040648,163.08629848592787" fill="black" />
<path d="M187.50779328350194,145.35234048203222 L102.67226453757962,90.3588601824871" stroke="black" />
<path d="M152.30053442903886,117.76280934288822 L140.05531386417837,114.59191462405614 L147.94895348476751,124.47576273803811" fill="black" />
<path d="M187.50779328350194,145.35234048203222 L315.0329862843354,247.2695772271188" stroke="#FE4A49" />
<path d="M244.08609007644614,195.6898004905408 L255.95744725953745,200.0568222023561 L249.0805745401536,189.44039052304908" fill="#FE4A49" />
<path d="M315.0329862843354,247.2695772271188 L347.2979555017057,133.14999799940819" stroke="black" />
<path d="M333.38219900198976,197.0717200299305 L332.79785870219587,184.43611373604668 L325.68396716570066,194.89520295103003" fill="black" />
<path d="M315.0329862843354,247.2695772271188 L132.77933052257077,281.5814094451506" stroke="#FE4A49" />
<path d="M229.06251796024745,259.3844660478674 L218.00974303877976,265.5355770479531 L230.54262957600534,267.2463532007652" fill="#FE4A49" />
<path d="M132.77933052257077,281.5814094451506 L102.67226453757962,90.3588601824871" stroke="black" />
<path d="M122.61029823679625,191.2750054857619 L116.79262196631895,180.04314709937162 L114.70764795086664,192.51923957077022" fill="black" />
<path d="M132.77933052257077,281.5814094451506 L50.0,175.58352871848882" stroke="#FE4A49" />
<path d="M98.23520855750323,230.84930321329182 L87.69667411689092,223.85364085408463 L91.93010425385648,235.77329140581776" fill="#FE4A49" />
<path d="M50.0,175.58352871848882 L102.67226453757962,90.3588601824871" stroke="#FE4A49" />
<path d="M76.58431684532843,140.17802485059923 L79.49054159277598,127.86730359970078 L69.77912904427885,135.97214575195102" fill="#FE4A49" />
<path d="M102.67226453757962,90.3588601824871 L347.2979555017057,133.14999799940819" stroke="#FE4A49" />
<path d="M218.3856175006599,114.660749529559 L230.89536811983598,112.78828071913183 L219.7640863382388,106.78040539596789" fill="#FE4A49" />
<path d="M347.2979555017057,133.14999799940819 L264.70966987030647,326.7042859453145" stroke="#FE4A49" />
<path d="M304.6794908379071,222.83868856963323 L303.64905701035394,235.44575825798802 L312.03764588540935,225.9783628038361" fill="#FE4A49" />
<circle cx="264.70966987030647" cy="326.7042859453145" r="5" fill="#FE4A49" />
<text x="249.85253960540683" y="328.76963828615203" font-size="18px" font-family="serif" fill="#FE4A49" stroke="white" stroke-width="4" paint-order="stroke" text-anchor="middle" dominant-baseline="central">a</text>
<circle cx="187.50779328350194" cy="145.35234048203222" r="5" fill="black" />
<text x="192.73850377220919" y="159.41077808310752" font-size="18px" font-family="serif" fill="black" stroke="white" stroke-width="4" paint-order="stroke" text-anchor="middle" dominant-baseline="central">b</text>
<circle cx="315.0329862843354" cy="247.2695772271188" r="5" fill="black" />
<text x="329.57326022995335" y="250.95474121076774" font-size="18px" font-family="serif" fill="black" stroke="white" stroke-width="4" paint-order="stroke" text-anchor="middle" dominant-baseline="central">c</text>
<circle cx="132.77933052257077" cy="281.5814094451506" r="5" fill="black" />
<text x="129.08319058716054" y="267.04392171246906" font-size="18px" font-family="serif" fill="black" stroke="white" stroke-width="4" paint-order="stroke" text-anchor="middle" dominant-baseline="central">d</text>
<circle cx="50.0" cy="175.58352871848882" r="5" fill="black" />
<text x="51.51550002803833" y="190.50677433279859" font-size="18px" font-family="serif" fill="black" stroke="white" stroke-width="4" paint-order="stroke" text-anchor="middle" dominant-baseline="central">e</text>
<circle cx="102.67226453757962" cy="90.3588601824871" r="5" fill="black" />
<text x="98.41684212568191" y="104.74257945450847" font-size="18px" font-family="serif" fill="black" stroke="white" stroke-width="4" paint-order="stroke" text-anchor="middle" dominant-baseline="central">f</text>
<circle cx="347.2979555017057" cy="133.14999799940819" r="5" fill="black" />
<text x="339.3709138731136" y="145.8842828642354" font-size="18px" font-family="serif" fill="black" stroke="white" stroke-width="4" paint-order="stroke" text-anchor="middle" dominant-baseline="central">g</text>
</svg>