<?xml version="1.0" encoding="UTF-8"?>
<svg xmlns="http://www.w3.org/2000/svg" xmlns:xlink="http://www.w3.org/1999/xlink"
     width="1920" height="1080" viewBox="0 0 1920 1080">
<defs>
<radialGradient cx="960" cy="540" r="1352.8455844" gradientUnits="userSpaceOnUse" id="d0">
<stop offset="0.1477348" stop-color="gray" />
<stop offset="0.8133731" stop-color="#262626" />
</radialGradient>
<clipPath id="d1">
<path d="M1038.281721726798,186.87499999999997 L960.0,130.0 L705.4119410234943,314.9690519687684 L791.2347771441274,579.1045818109309 L887.996306594172,579.104581810931 L813.594619752068,350.11973507891867 Z M705.4119410234943,314.9690519687684 L627.1302192966963,371.8440519687684 L724.3742046958586,671.1302649210813 L1002.1027364040523,671.1302649210813 L1032.003693405828,579.1045818109311 L791.2347771441274,579.1045818109309 Z M724.3742046958586,671.1302649210813 L754.2751616976343,763.1559480312316 L1068.963308852321,763.1559480312316 L1154.7861449729544,499.0204181890689 L1076.5044232461564,442.14541818906895 L1002.1027364040523,671.1302649210813 Z M1068.963308852321,763.1559480312316 L1165.7248383023655,763.1559480312317 L1262.968823701528,463.86973507891867 L1038.281721726798,300.625 L960.0,357.5 L1154.7861449729544,499.0204181890689 Z M1262.968823701528,463.86973507891867 L1292.8697807033038,371.84405196876844 L1038.281721726798,186.87499999999997 L813.594619752068,350.11973507891867 L843.4955767538437,442.14541818906895 L1038.281721726798,300.625 Z" fill="#3fb4f7bb" stroke="#555" stroke-width="6" />
</clipPath>
</defs>
<rect x="0" y="0" width="1920" height="1080" fill="url(#d0)" />
<path d="M370.8253175473055,758.75 L360.0,740.0 L240.92150697963967,946.25 L435.7772228311383,946.25 L424.95190528383284,927.5 L273.39745962155615,927.5 Z M240.92150697963967,946.25 L230.0961894323342,965.0 L468.2531754730548,965.0000000000001 L370.8253175473055,796.25 L360.0,815.0 L435.7772228311383,946.25 Z M468.2531754730548,965.0000000000001 L489.90381056766574,965.0000000000001 L370.8253175473055,758.75 L273.39745962155615,927.5 L295.0480947161671,927.5 L370.8253175473055,796.25 Z" fill="none" stroke="#888" stroke-width="5" stroke-linejoin="round" />
<path d="M770.8253175473055,758.75 L760.0,740.0 L640.9215069796397,946.25 L835.7772228311384,946.25 L824.9519052838328,927.5 L673.3974596215561,927.5 Z M640.9215069796397,946.25 L630.0961894323342,965.0 L868.2531754730547,965.0000000000001 L770.8253175473055,796.25 L760.0,815.0 L835.7772228311384,946.25 Z M868.2531754730547,965.0000000000001 L889.9038105676657,965.0000000000001 L770.8253175473055,758.75 L673.3974596215561,927.5 L695.048094716167,927.5 L770.8253175473055,796.25 Z" fill="none" stroke="#888" stroke-width="5" stroke-linejoin="round" />
<path d="M1170.8253175473055,758.75 L1160.0,740.0 L1040.9215069796396,946.25 L1235.7772228311385,946.25 L1224.951905283833,927.5 L1073.397459621556,927.5 Z M1040.9215069796396,946.25 L1030.096189432334,965.0 L1268.2531754730546,965.0000000000001 L1170.8253175473055,796.25 L1160.0,815.0 L1235.7772228311385,946.25 Z M1268.2531754730546,965.0000000000001 L1289.9038105676657,965.0000000000001 L1170.8253175473055,758.75 L1073.397459621556,927.5 L1095.048094716167,927.5 L1170.8253175473055,796.25 Z" fill="none" stroke="#888" stroke-width="5" stroke-linejoin="round" />
<path d="M1578.75,758.75 L1560.0,740.0 L1428.75,871.25 L1541.25,983.75 L1560.0,965.0 L1466.25,871.25 Z M1428.75,871.25 L1410.0,890.0 L1541.25,1021.25 L1653.75,908.75 L1635.0,890.0 L1541.25,983.75 Z M1541.25,1021.25 L1560.0,1040.0 L1691.25,908.75 L1578.75,796.25 L1560.0,815.0 L1653.75,908.75 Z M1691.25,908.75 L1710.0,890.0 L1578.75,758.75 L1466.25,871.25 L1485.0,890.0 L1578.75,796.25 Z" fill="none" stroke="#888" stroke-width="5" stroke-linejoin="round" />
<path d="M385.8071610088345,408.75 L360.0,390.0 L243.14868356456148,474.8974508437579 L284.016700764863,600.676274578121 L315.9161060780645,600.676274578121 L278.8133029256297,486.48558813281846 Z M243.14868356456148,474.8974508437579 L217.34152255572698,493.6474508437579 L261.9747538038952,631.0144118671815 L394.2264355697017,631.0144118671816 L404.0838939219355,600.676274578121 L284.016700764863,600.676274578121 Z M261.9747538038952,631.0144118671815 L271.832212156129,661.352549156242 L416.26838253066944,661.3525491562422 L457.13639973097105,535.573725421879 L431.32923872213655,516.823725421879 L394.2264355697017,631.0144118671816 Z M416.26838253066944,661.3525491562422 L448.16778784387094,661.3525491562422 L492.80101909203927,523.9855881328184 L385.8071610088345,446.25 L360.0,465.0 L457.13639973097105,535.573725421879 Z M492.80101909203927,523.9855881328184 L502.65847744427305,493.6474508437579 L385.8071610088345,408.75 L278.8133029256297,486.48558813281846 L288.6707612778635,516.823725421879 L385.8071610088345,446.25 Z" fill="none" stroke="#888" stroke-width="5" stroke-linejoin="round" />
<path d="M792.4759526419165,408.75 L760.0,390.0 L662.5721420742507,446.25 L662.5721420742506,558.75 L695.048094716167,577.5 L695.048094716167,465.0 Z M662.5721420742507,446.25 L630.0961894323342,465.0 L630.0961894323342,577.5 L727.5240473580835,633.75 L760.0,615.0 L662.5721420742506,558.75 Z M630.0961894323342,577.5 L630.0961894323342,615.0 L727.5240473580835,671.25 L824.9519052838328,615.0 L824.9519052838328,577.5 L727.5240473580835,633.75 Z M727.5240473580835,671.25 L760.0,690.0 L857.4278579257492,633.7500000000001 L857.4278579257494,521.25 L824.951905283833,502.5 L824.9519052838328,615.0 Z M857.4278579257492,633.7500000000001 L889.9038105676657,615.0000000000001 L889.9038105676658,502.5 L792.4759526419165,446.25 L760.0,465.0 L857.4278579257494,521.25 Z M889.9038105676658,502.5 L889.9038105676658,465.0 L792.4759526419165,408.75 L695.048094716167,465.0 L695.048094716167,502.5 L792.4759526419165,446.25 Z" fill="none" stroke="#888" stroke-width="5" stroke-linejoin="round" />
<path d="M1198.9347761857314,408.75 L1160.0,390.0 L1081.660053815527,427.72652972119 L1059.9367054727252,522.9027375003828 L1086.8804065863633,556.6890700467236 L1110.978734408078,451.1073972908925 Z M1081.660053815527,427.72652972119 L1042.7252776297955,446.47652972119 L1023.3769087659066,531.2472725237446 L1084.2443782356365,607.5726650926814 L1127.4587195661832,607.5726650926814 L1059.9367054727252,522.9027375003828 Z M1023.3769087659066,531.2472725237446 L1013.7608131727264,573.3781400934472 L1067.9737380187282,641.358997639022 L1165.5975793201787,641.3589976390222 L1192.5412804338168,607.5726650926814 L1084.2443782356365,607.5726650926814 Z M1067.9737380187282,641.358997639022 L1094.9174391323663,675.1453301853628 L1181.868219537087,675.1453301853628 L1242.735689006817,598.8199376164262 L1233.1195934136367,556.6890700467236 L1165.5975793201787,641.3589976390222 Z M1181.868219537087,675.1453301853628 L1225.0825608676337,675.1453301853628 L1279.2954857136353,607.164472639788 L1257.5721373708336,511.988264860595 L1218.6373611851022,493.238264860595 L1242.735689006817,598.8199376164262 Z M1279.2954857136353,607.164472639788 L1306.2391868272734,573.3781400934472 L1286.8908179633847,488.6073972908925 L1198.9347761857314,446.25 L1160.0,465.0 L1257.5721373708336,511.988264860595 Z M1286.8908179633847,488.6073972908925 L1277.2747223702045,446.47652972119 L1198.9347761857314,408.75 L1110.978734408078,451.1073972908925 L1101.3626388148978,493.238264860595 L1198.9347761857314,446.25 Z" fill="none" stroke="#888" stroke-width="5" stroke-linejoin="round" />
<path d="M1605.2665042944955,408.75 L1560.0,390.0 L1499.2004871165134,415.18398282201787 L1466.25,494.7334957055044 L1485.0,540.0 L1525.7169914110088,441.7004871165134 Z M1499.2004871165134,415.18398282201787 L1453.933982822018,433.93398282201787 L1428.75,494.7334957055044 L1461.7004871165134,574.283008588991 L1506.9669914110088,593.033008588991 L1466.25,494.7334957055044 Z M1428.75,494.7334957055044 L1410.0,540.0 L1435.183982822018,600.7995128834865 L1514.7334957055045,633.75 L1560.0,615.0 L1461.7004871165134,574.283008588991 Z M1435.183982822018,600.7995128834865 L1453.933982822018,646.0660171779821 L1514.7334957055045,671.25 L1594.2830085889912,638.2995128834866 L1613.0330085889912,593.033008588991 L1514.7334957055045,633.75 Z M1514.7334957055045,671.25 L1560.0,690.0 L1620.7995128834866,664.8160171779822 L1653.75,585.2665042944956 L1635.0,540.0 L1594.2830085889912,638.2995128834866 Z M1620.7995128834866,664.8160171779822 L1666.066017177982,646.0660171779822 L1691.25,585.2665042944956 L1658.2995128834866,505.71699141100896 L1613.0330085889912,486.96699141100896 L1653.75,585.2665042944956 Z M1691.25,585.2665042944956 L1710.0,540.0 L1684.816017177982,479.2004871165135 L1605.2665042944955,446.25 L1560.0,465.0 L1658.2995128834866,505.71699141100896 Z M1684.816017177982,479.2004871165135 L1666.066017177982,433.9339828220179 L1605.2665042944955,408.75 L1525.7169914110088,441.7004871165134 L1506.9669914110088,486.96699141100896 L1605.2665042944955,446.25 Z" fill="none" stroke="#888" stroke-width="5" stroke-linejoin="round" />
<path d="M411.5152016147741,58.75 L360.0,40.0 L315.09706016179325,56.3433335321533 L276.6197940376556,122.98791339550867 L286.1394185240844,176.97638667498023 L339.2015955250385,85.07000014911497 Z M315.09706016179325,56.3433335321533 L263.5818585470191,75.0933335321533 L239.68950329969772,116.47610673299877 L253.0525175878218,192.26152672052842 L295.0480947161671,227.5 L276.6197940376556,122.98791339550867 Z M239.68950329969772,116.47610673299877 L212.2788370481688,163.95277334996044 L220.57656494590537,211.01152672052842 L279.527156747517,260.47694655894315 L334.34848925057486,260.47694655894315 L253.0525175878218,192.26152672052842 Z M220.57656494590537,211.01152672052842 L230.0961894323342,265.0 L266.70140137280436,295.7154198384147 L343.65593362107984,295.71541983841473 L385.65151074942514,260.47694655894315 L279.527156747517,260.47694655894315 Z M266.70140137280436,295.7154198384147 L308.69697850114966,330.95389311788625 L356.4816889957924,330.95389311788625 L415.4322807974039,281.4884732794716 L424.95190528383284,227.50000000000003 L343.65593362107984,295.71541983841473 Z M356.4816889957924,330.95389311788625 L411.3030214988503,330.95389311788625 L447.90823343932044,300.23847327947163 L461.2712477274446,224.45305329194193 L433.86058147591564,176.97638667498026 L415.4322807974039,281.4884732794716 Z M447.90823343932044,300.23847327947163 L489.90381056766574,265.00000000000006 L498.2015384654023,217.94124662943204 L459.7242723412646,151.29666676607667 L408.2090707264905,132.54666676607667 L461.2712477274446,224.45305329194193 Z M498.2015384654023,217.94124662943204 L507.7211629518312,163.9527733499605 L483.82880770450987,122.570000149115 L411.5152016147741,96.25 L360.0,115.0 L459.7242723412646,151.29666676607667 Z M483.82880770450987,122.570000149115 L456.41814145298093,75.09333353215334 L411.5152016147741,58.75 L339.2015955250385,85.07000014911497 L311.79092927350956,132.54666676607664 L411.5152016147741,96.25 Z" fill="none" stroke="#888" stroke-width="5" stroke-linejoin="round" />
<path d="M817.706566322036,58.75000000000002 L760.0,40.0 L729.538778478165,49.89745084375786 L688.6707612778634,106.1474508437579 L688.6707612778634,166.82372542187895 L751.5807254391328,80.23558813281848 Z M729.538778478165,49.89745084375786 L671.832212156129,68.64745084375788 L653.0061419167953,94.55931355469743 L653.0061419167952,164.08813728906057 L688.6707612778634,213.17627457812105 L688.6707612778634,106.1474508437579 Z M653.0061419167953,94.55931355469743 L617.341522555727,143.6474508437579 L617.3415225557269,175.67627457812105 L658.2095397560286,231.92627457812102 L715.9161060780646,250.67627457812105 L653.0061419167952,164.08813728906057 Z M617.3415225557269,175.67627457812105 L617.3415225557269,236.3525491562421 L636.1675927950607,262.26441186718165 L702.293433677964,283.75 L760.0,265.0 L658.2095397560286,231.92627457812102 Z M636.1675927950607,262.26441186718165 L671.832212156129,311.3525491562421 L702.293433677964,321.25 L768.4192745608672,299.76441186718154 L804.0838939219354,250.67627457812108 L702.293433677964,283.75 Z M702.293433677964,321.25 L760.0,340.0 L790.461221521835,330.10254915624216 L831.3292387221366,273.85254915624216 L831.3292387221366,213.17627457812108 L768.4192745608672,299.76441186718154 Z M790.461221521835,330.10254915624216 L848.167787843871,311.35254915624216 L866.9938580832047,285.4406864453026 L866.9938580832048,215.91186271093943 L831.3292387221366,166.82372542187895 L831.3292387221366,273.85254915624216 Z M866.9938580832047,285.4406864453026 L902.658477444273,236.35254915624213 L902.6584774442731,204.32372542187898 L861.7904602439714,148.07372542187898 L804.0838939219354,129.32372542187895 L866.9938580832048,215.91186271093943 Z M902.6584774442731,204.32372542187898 L902.6584774442731,143.64745084375792 L883.8324072049393,117.73558813281836 L817.706566322036,96.24999999999997 L760.0,115.0 L861.7904602439714,148.07372542187898 Z M883.8324072049393,117.73558813281836 L848.167787843871,68.6474508437579 L817.706566322036,58.75000000000002 L751.5807254391328,80.23558813281848 L715.9161060780646,129.32372542187895 L817.706566322036,96.24999999999997 Z" fill="none" stroke="#888" stroke-width="5" stroke-linejoin="round" />
<path d="M1223.8566357291734,58.75000000000003 L1160.0,40.0 L1142.7605131108337,45.06197007532279 L1101.2490055972055,92.96880355611853 L1091.7776003484112,158.8438740248585 L1163.034543765419,76.60897755649218 Z M1142.7605131108337,45.06197007532279 L1078.9038773816603,63.81197007532282 L1067.1378057714107,77.39074056854781 L1058.116493037189,140.1353488370046 L1085.76339185893,200.67361287049638 L1101.2490055972055,92.96880355611853 Z M1067.1378057714107,77.39074056854781 L1023.5552006968222,127.68774804971704 L1020.9981889666544,145.47215527225276 L1047.331274063405,203.1335685353528 L1103.3187819234306,239.11455504589637 L1058.116493037189,140.1353488370046 Z M1020.9981889666544,145.47215527225276 L1011.5267837178601,211.34722574099274 L1018.9906650251202,227.69084605830096 L1072.3175794953138,261.9619730210873 L1138.8700582368929,261.9619730210873 L1047.331274063405,203.1335685353528 Z M1018.9906650251202,227.69084605830096 L1046.6375638468612,288.22911009179273 L1061.75260861376,297.94295953163106 L1125.1424339030816,297.9429595316309 L1181.1299417631071,261.9619730210873 L1072.3175794953138,261.9619730210873 Z M1061.75260861376,297.94295953163106 L1117.7401164737855,333.92394604217463 L1135.7074047846354,333.92394604217463 L1189.0343192548285,299.65281907938817 L1216.6812180765694,239.1145550458964 L1125.1424339030816,297.9429595316309 Z M1135.7074047846354,333.92394604217463 L1202.2598835262145,333.92394604217463 L1217.3749282931133,324.21009660233636 L1243.7080133898644,266.5486833392364 L1234.23660814107,200.67361287049638 L1189.0343192548285,299.65281907938817 Z M1217.3749282931133,324.21009660233636 L1273.3624361531388,288.2291100917928 L1280.826317460399,271.88548977448454 L1271.8050047261775,209.1408815060278 L1228.2223996515888,158.84387402485854 L1243.7080133898644,266.5486833392364 Z M1280.826317460399,271.88548977448454 L1308.47321628214,211.34722574099277 L1305.916204551972,193.56281851845708 L1264.404697038343,145.65598503766142 L1200.5480613091697,126.90598503766141 L1271.8050047261775,209.1408815060278 Z M1305.916204551972,193.56281851845708 L1296.4447993031777,127.6877480497171 L1284.6787276929283,114.10897755649208 L1223.8566357291734,96.24999999999997 L1160.0,115.0 L1264.404697038343,145.65598503766142 Z M1284.6787276929283,114.10897755649208 L1241.0961226183397,63.81197007532282 L1223.8566357291734,58.75000000000003 L1163.034543765419,76.60897755649218 L1119.4519386908303,126.90598503766141 L1223.8566357291734,96.24999999999997 Z" fill="none" stroke="#888" stroke-width="5" stroke-linejoin="round" />
<path d="M1629.9759526419164,58.75000000000005 L1560.0,40.0 L1554.9759526419164,41.3461894323342 L1513.798094716167,82.52404735808351 L1495.048094716167,152.5 L1573.7259526419166,73.8221420742507 Z M1554.9759526419164,41.3461894323342 L1485.0,60.0961894323342 L1481.3221420742507,63.77404735808359 L1466.25,120.02404735808351 L1485.0,190.0 L1513.798094716167,82.52404735808351 Z M1481.3221420742507,63.77404735808359 L1430.096189432334,114.99999999999999 L1428.75,120.02404735808351 L1443.8221420742505,176.2740473580836 L1495.048094716167,227.5 L1466.25,120.02404735808351 Z M1428.75,120.02404735808351 L1410.0,190.0 L1411.346189432334,195.02404735808352 L1452.5240473580836,236.2019052838329 L1522.5,254.9519052838329 L1443.8221420742505,176.2740473580836 Z M1411.346189432334,195.02404735808352 L1430.096189432334,265.0 L1433.7740473580834,268.67785792574944 L1490.0240473580836,283.75 L1560.0,265.0 L1452.5240473580836,236.2019052838329 Z M1433.7740473580834,268.67785792574944 L1485.0,319.9038105676658 L1490.0240473580836,321.25 L1546.2740473580834,306.17785792574927 L1597.5,254.9519052838329 L1490.0240473580836,283.75 Z M1490.0240473580836,321.25 L1560.0,340.0 L1565.0240473580836,338.6538105676658 L1606.201905283833,297.47595264191654 L1624.951905283833,227.50000000000003 L1546.2740473580834,306.17785792574927 Z M1565.0240473580836,338.6538105676658 L1635.0,319.9038105676658 L1638.677857925749,316.2259526419164 L1653.75,259.9759526419165 L1635.0,190.0 L1606.201905283833,297.47595264191654 Z M1638.677857925749,316.2259526419164 L1689.9038105676657,265.00000000000006 L1691.25,259.97595264191654 L1676.1778579257495,203.72595264191636 L1624.951905283833,152.5 L1653.75,259.9759526419165 Z M1691.25,259.97595264191654 L1710.0,190.00000000000003 L1708.653810567666,184.97595264191648 L1667.4759526419164,143.79809471616718 L1597.5,125.04809471616713 L1676.1778579257495,203.72595264191636 Z M1708.653810567666,184.97595264191648 L1689.903810567666,114.99999999999999 L1686.2259526419166,111.32214207425064 L1629.9759526419164,96.25 L1560.0,115.0 L1667.4759526419164,143.79809471616718 Z M1686.2259526419166,111.32214207425064 L1635.0,60.096189432334256 L1629.9759526419164,58.75000000000005 L1573.7259526419166,73.8221420742507 L1522.5,125.0480947161671 L1629.9759526419164,96.25 Z" fill="none" stroke="#888" stroke-width="5" stroke-linejoin="round" />
<g style="filter: drop-shadow(0px 50px 20px #0008);">
<path d="M1038.281721726798,186.87499999999997 L960.0,130.0 L705.4119410234943,314.9690519687684 L791.2347771441274,579.1045818109309 L887.996306594172,579.104581810931 L813.594619752068,350.11973507891867 Z M705.4119410234943,314.9690519687684 L627.1302192966963,371.8440519687684 L724.3742046958586,671.1302649210813 L1002.1027364040523,671.1302649210813 L1032.003693405828,579.1045818109311 L791.2347771441274,579.1045818109309 Z M724.3742046958586,671.1302649210813 L754.2751616976343,763.1559480312316 L1068.963308852321,763.1559480312316 L1154.7861449729544,499.0204181890689 L1076.5044232461564,442.14541818906895 L1002.1027364040523,671.1302649210813 Z M1068.963308852321,763.1559480312316 L1165.7248383023655,763.1559480312317 L1262.968823701528,463.86973507891867 L1038.281721726798,300.625 L960.0,357.5 L1154.7861449729544,499.0204181890689 Z M1262.968823701528,463.86973507891867 L1292.8697807033038,371.84405196876844 L1038.281721726798,186.87499999999997 L813.594619752068,350.11973507891867 L843.4955767538437,442.14541818906895 L1038.281721726798,300.625 Z" fill="#3fb4f7bb" stroke="#555" stroke-width="6" />
<text x="960.0" y="855.0" font-size="172px" font-family="HelveticaNeue-CondensedBold,Helvetica,Arial,Geneva,Tahoma,sans-serif" fill="#fff" stroke="#555" stroke-width="12" paint-order="stroke" text-anchor="middle" dominant-baseline="central">Penrose</text>
</g>
<g clip-path="url(#d1)">
<path d="M370.8253175473055,758.75 L360.0,740.0 L240.92150697963967,946.25 L435.7772228311383,946.25 L424.95190528383284,927.5 L273.39745962155615,927.5 Z M240.92150697963967,946.25 L230.0961894323342,965.0 L468.2531754730548,965.0000000000001 L370.8253175473055,796.25 L360.0,815.0 L435.7772228311383,946.25 Z M468.2531754730548,965.0000000000001 L489.90381056766574,965.0000000000001 L370.8253175473055,758.75 L273.39745962155615,927.5 L295.0480947161671,927.5 L370.8253175473055,796.25 Z" fill="none" stroke="#fffb" stroke-width="5" style="filter:blur(10px);" />
<path d="M770.8253175473055,758.75 L760.0,740.0 L640.9215069796397,946.25 L835.7772228311384,946.25 L824.9519052838328,927.5 L673.3974596215561,927.5 Z M640.9215069796397,946.25 L630.0961894323342,965.0 L868.2531754730547,965.0000000000001 L770.8253175473055,796.25 L760.0,815.0 L835.7772228311384,946.25 Z M868.2531754730547,965.0000000000001 L889.9038105676657,965.0000000000001 L770.8253175473055,758.75 L673.3974596215561,927.5 L695.048094716167,927.5 L770.8253175473055,796.25 Z" fill="none" stroke="#fffb" stroke-width="5" style="filter:blur(10px);" />
<path d="M1170.8253175473055,758.75 L1160.0,740.0 L1040.9215069796396,946.25 L1235.7772228311385,946.25 L1224.951905283833,927.5 L1073.397459621556,927.5 Z M1040.9215069796396,946.25 L1030.096189432334,965.0 L1268.2531754730546,965.0000000000001 L1170.8253175473055,796.25 L1160.0,815.0 L1235.7772228311385,946.25 Z M1268.2531754730546,965.0000000000001 L1289.9038105676657,965.0000000000001 L1170.8253175473055,758.75 L1073.397459621556,927.5 L1095.048094716167,927.5 L1170.8253175473055,796.25 Z" fill="none" stroke="#fffb" stroke-width="5" style="filter:blur(10px);" />
<path d="M1578.75,758.75 L1560.0,740.0 L1428.75,871.25 L1541.25,983.75 L1560.0,965.0 L1466.25,871.25 Z M1428.75,871.25 L1410.0,890.0 L1541.25,1021.25 L1653.75,908.75 L1635.0,890.0 L1541.25,983.75 Z M1541.25,1021.25 L1560.0,1040.0 L1691.25,908.75 L1578.75,796.25 L1560.0,815.0 L1653.75,908.75 Z M1691.25,908.75 L1710.0,890.0 L1578.75,758.75 L1466.25,871.25 L1485.0,890.0 L1578.75,796.25 Z" fill="none" stroke="#fffb" stroke-width="5" style="filter:blur(10px);" />
<path d="M385.8071610088345,408.75 L360.0,390.0 L243.14868356456148,474.8974508437579 L284.016700764863,600.676274578121 L315.9161060780645,600.676274578121 L278.8133029256297,486.48558813281846 Z M243.14868356456148,474.8974508437579 L217.34152255572698,493.6474508437579 L261.9747538038952,631.0144118671815 L394.2264355697017,631.0144118671816 L404.0838939219355,600.676274578121 L284.016700764863,600.676274578121 Z M261.9747538038952,631.0144118671815 L271.832212156129,661.352549156242 L416.26838253066944,661.3525491562422 L457.13639973097105,535.573725421879 L431.32923872213655,516.823725421879 L394.2264355697017,631.0144118671816 Z M416.26838253066944,661.3525491562422 L448.16778784387094,661.3525491562422 L492.80101909203927,523.9855881328184 L385.8071610088345,446.25 L360.0,465.0 L457.13639973097105,535.573725421879 Z M492.80101909203927,523.9855881328184 L502.65847744427305,493.6474508437579 L385.8071610088345,408.75 L278.8133029256297,486.48558813281846 L288.6707612778635,516.823725421879 L385.8071610088345,446.25 Z" fill="none" stroke="#fffb" stroke-width="5" style="filter:blur(10px);" />
<path d="M792.4759526419165,408.75 L760.0,390.0 L662.5721420742507,446.25 L662.5721420742506,558.75 L695.048094716167,577.5 L695.048094716167,465.0 Z M662.5721420742507,446.25 L630.0961894323342,465.0 L630.0961894323342,577.5 L727.5240473580835,633.75 L760.0,615.0 L662.5721420742506,558.75 Z M630.0961894323342,577.5 L630.0961894323342,615.0 L727.5240473580835,671.25 L824.9519052838328,615.0 L824.9519052838328,577.5 L727.5240473580835,633.75 Z M727.5240473580835,671.25 L760.0,690.0 L857.4278579257492,633.7500000000001 L857.4278579257494,521.25 L824.951905283833,502.5 L824.9519052838328,615.0 Z M857.4278579257492,633.7500000000001 L889.9038105676657,615.0000000000001 L889.9038105676658,502.5 L792.4759526419165,446.25 L760.0,465.0 L857.4278579257494,521.25 Z M889.9038105676658,502.5 L889.9038105676658,465.0 L792.4759526419165,408.75 L695.048094716167,465.0 L695.048094716167,502.5 L792.4759526419165,446.25 Z" fill="none" stroke="#fffb" stroke-width="5" style="filter:blur(10px);" />
<path d="M1198.9347761857314,408.75 L1160.0,390.0 L1081.660053815527,427.72652972119 L1059.9367054727252,522.9027375003828 L1086.8804065863633,556.6890700467236 L1110.978734408078,451.1073972908925 Z M1081.660053815527,427.72652972119 L1042.7252776297955,446.47652972119 L1023.3769087659066,531.2472725237446 L1084.2443782356365,607.5726650926814 L1127.4587195661832,607.5726650926814 L1059.9367054727252,522.9027375003828 Z M1023.3769087659066,531.2472725237446 L1013.7608131727264,573.3781400934472 L1067.9737380187282,641.358997639022 L1165.5975793201787,641.3589976390222 L1192.5412804338168,607.5726650926814 L1084.2443782356365,607.5726650926814 Z M1067.9737380187282,641.358997639022 L1094.9174391323663,675.1453301853628 L1181.868219537087,675.1453301853628 L1242.735689006817,598.8199376164262 L1233.1195934136367,556.6890700467236 L1165.5975793201787,641.3589976390222 Z M1181.868219537087,675.1453301853628 L1225.0825608676337,675.1453301853628 L1279.2954857136353,607.164472639788 L1257.5721373708336,511.988264860595 L1218.6373611851022,493.238264860595 L1242.735689006817,598.8199376164262 Z M1279.2954857136353,607.164472639788 L1306.2391868272734,573.3781400934472 L1286.8908179633847,488.6073972908925 L1198.9347761857314,446.25 L1160.0,465.0 L1257.5721373708336,511.988264860595 Z M1286.8908179633847,488.6073972908925 L1277.2747223702045,446.47652972119 L1198.9347761857314,408.75 L1110.978734408078,451.1073972908925 L1101.3626388148978,493.238264860595 L1198.9347761857314,446.25 Z" fill="none" stroke="#fffb" stroke-width="5" style="filter:blur(10px);" />
<path d="M1605.2665042944955,408.75 L1560.0,390.0 L1499.2004871165134,415.18398282201787 L1466.25,494.7334957055044 L1485.0,540.0 L1525.7169914110088,441.7004871165134 Z M1499.2004871165134,415.18398282201787 L1453.933982822018,433.93398282201787 L1428.75,494.7334957055044 L1461.7004871165134,574.283008588991 L1506.9669914110088,593.033008588991 L1466.25,494.7334957055044 Z M1428.75,494.7334957055044 L1410.0,540.0 L1435.183982822018,600.7995128834865 L1514.7334957055045,633.75 L1560.0,615.0 L1461.7004871165134,574.283008588991 Z M1435.183982822018,600.7995128834865 L1453.933982822018,646.0660171779821 L1514.7334957055045,671.25 L1594.2830085889912,638.2995128834866 L1613.0330085889912,593.033008588991 L1514.7334957055045,633.75 Z M1514.7334957055045,671.25 L1560.0,690.0 L1620.7995128834866,664.8160171779822 L1653.75,585.2665042944956 L1635.0,540.0 L1594.2830085889912,638.2995128834866 Z M1620.7995128834866,664.8160171779822 L1666.066017177982,646.0660171779822 L1691.25,585.2665042944956 L1658.2995128834866,505.71699141100896 L1613.0330085889912,486.96699141100896 L1653.75,585.2665042944956 Z M1691.25,585.2665042944956 L1710.0,540.0 L1684.816017177982,479.2004871165135 L1605.2665042944955,446.25 L1560.0,465.0 L1658.2995128834866,505.71699141100896 Z M1684.816017177982,479.2004871165135 L1666.066017177982,433.9339828220179 L1605.2665042944955,408.75 L1525.7169914110088,441.7004871165134 L1506.9669914110088,486.96699141100896 L1605.2665042944955,446.25 Z" fill="none" stroke="#fffb" stroke-width="5" style="filter:blur(10px);" />
<path d="M411.5152016147741,58.75 L360.0,40.0 L315.09706016179325,56.3433335321533 L276.6197940376556,122.98791339550867 L286.1394185240844,176.97638667498023 L339.2015955250385,85.07000014911497 Z M315.09706016179325,56.3433335321533 L263.5818585470191,75.0933335321533 L239.68950329969772,116.47610673299877 L253.0525175878218,192.26152672052842 L295.0480947161671,227.5 L276.6197940376556,122.98791339550867 Z M239.68950329969772,116.47610673299877 L212.2788370481688,163.95277334996044 L220.57656494590537,211.01152672052842 L279.527156747517,260.47694655894315 L334.34848925057486,260.47694655894315 L253.0525175878218,192.26152672052842 Z M220.57656494590537,211.01152672052842 L230.0961894323342,265.0 L266.70140137280436,295.7154198384147 L343.65593362107984,295.71541983841473 L385.65151074942514,260.47694655894315 L279.527156747517,260.47694655894315 Z M266.70140137280436,295.7154198384147 L308.69697850114966,330.95389311788625 L356.4816889957924,330.95389311788625 L415.4322807974039,281.4884732794716 L424.95190528383284,227.50000000000003 L343.65593362107984,295.71541983841473 Z M356.4816889957924,330.95389311788625 L411.3030214988503,330.95389311788625 L447.90823343932044,300.23847327947163 L461.2712477274446,224.45305329194193 L433.86058147591564,176.97638667498026 L415.4322807974039,281.4884732794716 Z M447.90823343932044,300.23847327947163 L489.90381056766574,265.00000000000006 L498.2015384654023,217.94124662943204 L459.7242723412646,151.29666676607667 L408.2090707264905,132.54666676607667 L461.2712477274446,224.45305329194193 Z M498.2015384654023,217.94124662943204 L507.7211629518312,163.9527733499605 L483.82880770450987,122.570000149115 L411.5152016147741,96.25 L360.0,115.0 L459.7242723412646,151.29666676607667 Z M483.82880770450987,122.570000149115 L456.41814145298093,75.09333353215334 L411.5152016147741,58.75 L339.2015955250385,85.07000014911497 L311.79092927350956,132.54666676607664 L411.5152016147741,96.25 Z" fill="none" stroke="#fffb" stroke-width="5" style="filter:blur(10px);" />
<path d="M817.706566322036,58.75000000000002 L760.0,40.0 L729.538778478165,49.89745084375786 L688.6707612778634,106.1474508437579 L688.6707612778634,166.82372542187895 L751.5807254391328,80.23558813281848 Z M729.538778478165,49.89745084375786 L671.832212156129,68.64745084375788 L653.0061419167953,94.55931355469743 L653.0061419167952,164.08813728906057 L688.6707612778634,213.17627457812105 L688.6707612778634,106.1474508437579 Z M653.0061419167953,94.55931355469743 L617.341522555727,143.6474508437579 L617.3415225557269,175.67627457812105 L658.2095397560286,231.92627457812102 L715.9161060780646,250.67627457812105 L653.0061419167952,164.08813728906057 Z M617.3415225557269,175.67627457812105 L617.3415225557269,236.3525491562421 L636.1675927950607,262.26441186718165 L702.293433677964,283.75 L760.0,265.0 L658.2095397560286,231.92627457812102 Z M636.1675927950607,262.26441186718165 L671.832212156129,311.3525491562421 L702.293433677964,321.25 L768.4192745608672,299.76441186718154 L804.0838939219354,250.67627457812108 L702.293433677964,283.75 Z M702.293433677964,321.25 L760.0,340.0 L790.461221521835,330.10254915624216 L831.3292387221366,273.85254915624216 L831.3292387221366,213.17627457812108 L768.4192745608672,299.76441186718154 Z M790.461221521835,330.10254915624216 L848.167787843871,311.35254915624216 L866.9938580832047,285.4406864453026 L866.9938580832048,215.91186271093943 L831.3292387221366,166.82372542187895 L831.3292387221366,273.85254915624216 Z M866.9938580832047,285.4406864453026 L902.658477444273,236.35254915624213 L902.6584774442731,204.32372542187898 L861.7904602439714,148.07372542187898 L804.0838939219354,129.32372542187895 L866.9938580832048,215.91186271093943 Z M902.6584774442731,204.32372542187898 L902.6584774442731,143.64745084375792 L883.8324072049393,117.73558813281836 L817.706566322036,96.24999999999997 L760.0,115.0 L861.7904602439714,148.07372542187898 Z M883.8324072049393,117.73558813281836 L848.167787843871,68.6474508437579 L817.706566322036,58.75000000000002 L751.5807254391328,80.23558813281848 L715.9161060780646,129.32372542187895 L817.706566322036,96.24999999999997 Z" fill="none" stroke="#fffb" stroke-width="5" style="filter:blur(10px);" />
<path d="M1223.8566357291734,58.75000000000003 L1160.0,40.0 L1142.7605131108337,45.06197007532279 L1101.2490055972055,92.96880355611853 L1091.7776003484112,158.8438740248585 L1163.034543765419,76.60897755649218 Z M1142.7605131108337,45.06197007532279 L1078.9038773816603,63.81197007532282 L1067.1378057714107,77.39074056854781 L1058.116493037189,140.1353488370046 L1085.76339185893,200.67361287049638 L1101.2490055972055,92.96880355611853 Z M1067.1378057714107,77.39074056854781 L1023.5552006968222,127.68774804971704 L1020.9981889666544,145.47215527225276 L1047.331274063405,203.1335685353528 L1103.3187819234306,239.11455504589637 L1058.116493037189,140.1353488370046 Z M1020.9981889666544,145.47215527225276 L1011.5267837178601,211.34722574099274 L1018.9906650251202,227.69084605830096 L1072.3175794953138,261.9619730210873 L1138.8700582368929,261.9619730210873 L1047.331274063405,203.1335685353528 Z M1018.9906650251202,227.69084605830096 L1046.6375638468612,288.22911009179273 L1061.75260861376,297.94295953163106 L1125.1424339030816,297.9429595316309 L1181.1299417631071,261.9619730210873 L1072.3175794953138,261.9619730210873 Z M1061.75260861376,297.94295953163106 L1117.7401164737855,333.92394604217463 L1135.7074047846354,333.92394604217463 L1189.0343192548285,299.65281907938817 L1216.6812180765694,239.1145550458964 L1125.1424339030816,297.9429595316309 Z M1135.7074047846354,333.92394604217463 L1202.2598835262145,333.92394604217463 L1217.3749282931133,324.21009660233636 L1243.7080133898644,266.5486833392364 L1234.23660814107,200.67361287049638 L1189.0343192548285,299.65281907938817 Z M1217.3749282931133,324.21009660233636 L1273.3624361531388,288.2291100917928 L1280.826317460399,271.88548977448454 L1271.8050047261775,209.1408815060278 L1228.2223996515888,158.84387402485854 L1243.7080133898644,266.5486833392364 Z M1280.826317460399,271.88548977448454 L1308.47321628214,211.34722574099277 L1305.916204551972,193.56281851845708 L1264.404697038343,145.65598503766142 L1200.5480613091697,126.90598503766141 L1271.8050047261775,209.1408815060278 Z M1305.916204551972,193.56281851845708 L1296.4447993031777,127.6877480497171 L1284.6787276929283,114.10897755649208 L1223.8566357291734,96.24999999999997 L1160.0,115.0 L1264.404697038343,145.65598503766142 Z M1284.6787276929283,114.10897755649208 L1241.0961226183397,63.81197007532282 L1223.8566357291734,58.75000000000003 L1163.034543765419,76.60897755649218 L1119.4519386908303,126.90598503766141 L1223.8566357291734,96.24999999999997 Z" fill="none" stroke="#fffb" stroke-width="5" style="filter:blur(10px);" />
<path d="M1629.9759526419164,58.75000000000005 L1560.0,40.0 L1554.9759526419164,41.3461894323342 L1513.798094716167,82.52404735808351 L1495.048094716167,152.5 L1573.7259526419166,73.8221420742507 Z M1554.9759526419164,41.3461894323342 L1485.0,60.0961894323342 L1481.3221420742507,63.77404735808359 L1466.25,120.02404735808351 L1485.0,190.0 L1513.798094716167,82.52404735808351 Z M1481.3221420742507,63.77404735808359 L1430.096189432334,114.99999999999999 L1428.75,120.02404735808351 L1443.8221420742505,176.2740473580836 L1495.048094716167,227.5 L1466.25,120.02404735808351 Z M1428.75,120.02404735808351 L1410.0,190.0 L1411.346189432334,195.02404735808352 L1452.5240473580836,236.2019052838329 L1522.5,254.9519052838329 L1443.8221420742505,176.2740473580836 Z M1411.346189432334,195.02404735808352 L1430.096189432334,265.0 L1433.7740473580834,268.67785792574944 L1490.0240473580836,283.75 L1560.0,265.0 L1452.5240473580836,236.2019052838329 Z M1433.7740473580834,268.67785792574944 L1485.0,319.9038105676658 L1490.0240473580836,321.25 L1546.2740473580834,306.17785792574927 L1597.5,254.9519052838329 L1490.0240473580836,283.75 Z M1490.0240473580836,321.25 L1560.0,340.0 L1565.0240473580836,338.6538105676658 L1606.201905283833,297.47595264191654 L1624.951905283833,227.50000000000003 L1546.2740473580834,306.17785792574927 Z M1565.0240473580836,338.6538105676658 L1635.0,319.9038105676658 L1638.677857925749,316.2259526419164 L1653.75,259.9759526419165 L1635.0,190.0 L1606.201905283833,297.47595264191654 Z M1638.677857925749,316.2259526419164 L1689.9038105676657,265.00000000000006 L1691.25,259.97595264191654 L1676.1778579257495,203.72595264191636 L1624.951905283833,152.5 L1653.75,259.9759526419165 Z M1691.25,259.97595264191654 L1710.0,190.00000000000003 L1708.653810567666,184.97595264191648 L1667.4759526419164,143.79809471616718 L1597.5,125.04809471616713 L1676.1778579257495,203.72595264191636 Z M1708.653810567666,184.97595264191648 L1689.903810567666,114.99999999999999 L1686.2259526419166,111.32214207425064 L1629.9759526419164,96.25 L1560.0,115.0 L1667.4759526419164,143.79809471616718 Z M1686.2259526419166,111.32214207425064 L1635.0,60.096189432334256 L1629.9759526419164,58.75000000000005 L1573.7259526419166,73.8221420742507 L1522.5,125.0480947161671 L1629.9759526419164,96.25 Z" fill="none" stroke="#fffb" stroke-width="5" style="filter:blur(10px);" />
</g>
</svg>